<svg aria-hidden="true" style="position: absolute; width: 0; height: 0; overflow: hidden;" version="1.1" xmlns="http://www.w3.org/2000/svg" xmlns:xlink="http://www.w3.org/1999/xlink">
<defs>
<symbol id="icon-water" viewBox="0 0 32 32">
<path d="M26.882 19.668c-0.316-1.865-1.032-3.569-1.744-5.114-2.14-4.718-4.718-9.002-7.255-12.967l-0.316-0.554c-0.437-0.676-0.951-1.032-1.546-1.032-0.874 0-1.428 0.793-1.586 1.032 0 0 0 0 0 0.040l-0.554 0.874c-0.991 1.586-2.023 3.253-3.014 4.916-1.546 2.618-3.488 6.106-4.916 9.832-0.477 1.23-0.91 2.46-0.951 3.807-0.158 3.488 1.109 6.425 3.726 8.723 2.023 1.784 4.6 2.776 7.255 2.776v0c3.884 0 7.416-1.983 9.436-5.353 1.347-2.221 1.861-4.6 1.465-6.979zM24.147 25.894c-1.744 2.933-4.799 4.637-8.169 4.637-2.298 0-4.56-0.833-6.304-2.379-2.262-1.983-3.37-4.56-3.253-7.574 0.040-1.109 0.397-2.181 0.874-3.33 1.388-3.649 3.29-7.056 4.799-9.634 0.951-1.626 1.983-3.29 3.014-4.876l0.514-0.833c0-0.040 0.040-0.040 0.040-0.081 0.081-0.117 0.239-0.316 0.316-0.356 0 0 0.117 0.040 0.316 0.356l0.316 0.514c2.46 3.884 5.037 8.129 7.137 12.769 0.676 1.505 1.347 3.091 1.626 4.758 0.4 2.063-0.037 4.083-1.226 6.029zM16.69 26.765c0 0.397-0.316 0.712-0.712 0.712-3.609 0-6.502-2.933-6.502-6.502 0-0.397 0.316-0.712 0.712-0.712s0.712 0.316 0.712 0.712c0.040 2.776 2.302 5.037 5.078 5.037 0.397 0 0.712 0.356 0.712 0.753z"></path>
</symbol>
<symbol id="icon-fire" viewBox="0 0 32 32">
<path d="M10.031 32c-2.133-4.438-0.997-6.981 0.642-9.376 1.795-2.624 2.258-5.221 2.258-5.221s1.411 1.834 0.847 4.703c2.493-2.775 2.963-7.196 2.587-8.889 5.635 3.938 8.043 12.464 4.798 18.783 17.262-9.767 4.294-24.38 2.036-26.027 0.753 1.646 0.895 4.433-0.625 5.785-2.573-9.759-8.937-11.759-8.937-11.759 0.753 5.033-2.728 10.536-6.084 14.648-0.118-2.007-0.243-3.392-1.298-5.312-0.237 3.646-3.023 6.617-3.777 10.27-1.022 4.946 0.765 8.568 7.555 12.394z"></path>
</symbol>
<symbol id="icon-cloud" viewBox="0 0 32 32">
<path d="M32 20.548c0-2.565-1.771-4.716-4.156-5.296-0.101-4.022-3.389-7.252-7.433-7.252-2.369 0-4.477 1.109-5.839 2.835-0.764-0.987-1.959-1.624-3.303-1.624-2.307 0-4.176 1.871-4.176 4.179 0 0.201 0.015 0.399 0.043 0.592-0.351-0.063-0.711-0.098-1.080-0.098-3.344-0-6.054 2.712-6.054 6.058s2.71 6.058 6.054 6.058l20.508-0c3.004-0.006 5.438-2.444 5.438-5.451z"></path>
</symbol>
<symbol id="icon-earth" viewBox="0 0 32 32">
<path d="M16 0c-8.837 0-16 7.163-16 16s7.163 16 16 16 16-7.163 16-16-7.163-16-16-16zM16 30c-1.967 0-3.84-0.407-5.538-1.139l7.286-8.197c0.163-0.183 0.253-0.419 0.253-0.664v-3c0-0.552-0.448-1-1-1-3.531 0-7.256-3.671-7.293-3.707-0.188-0.188-0.442-0.293-0.707-0.293h-4c-0.552 0-1 0.448-1 1v6c0 0.379 0.214 0.725 0.553 0.894l3.447 1.724v5.871c-3.627-2.53-6-6.732-6-11.489 0-2.147 0.484-4.181 1.348-6h3.652c0.265 0 0.52-0.105 0.707-0.293l4-4c0.188-0.188 0.293-0.442 0.293-0.707v-2.419c1.268-0.377 2.61-0.581 4-0.581 2.2 0 4.281 0.508 6.134 1.412-0.13 0.109-0.256 0.224-0.376 0.345-1.133 1.133-1.757 2.64-1.757 4.243s0.624 3.109 1.757 4.243c1.139 1.139 2.663 1.758 4.239 1.758 0.099 0 0.198-0.002 0.297-0.007 0.432 1.619 1.211 5.833-0.263 11.635-0.014 0.055-0.022 0.109-0.026 0.163-2.541 2.596-6.084 4.208-10.004 4.208z"></path>
</symbol>
</defs>
</svg>
